<?xml version="1.0" encoding="UTF-8" standalone="no"?>
<svg
   xmlns:dc="http://purl.org/dc/elements/1.1/"
   xmlns:cc="http://creativecommons.org/ns#"
   xmlns:rdf="http://www.w3.org/1999/02/22-rdf-syntax-ns#"
   xmlns:svg="http://www.w3.org/2000/svg"
   xmlns="http://www.w3.org/2000/svg"
   xmlns:sodipodi="http://sodipodi.sourceforge.net/DTD/sodipodi-0.dtd"
   xmlns:inkscape="http://www.inkscape.org/namespaces/inkscape"
   version="1.1"
   id="svg907"
   width="512"
   height="512"
   viewBox="0 0 512 512"
   sodipodi:docname="kisspng-headphones-headset-audio-clip-art-headset-5ac97515a30df4.5437255115231521496679.svg"
   inkscape:version="1.0.1 (3bc2e813f5, 2020-09-07)">
  <metadata
     id="metadata913">
    <rdf:RDF>
      <cc:Work
         rdf:about="">
        <dc:format>image/svg+xml</dc:format>
        <dc:type
           rdf:resource="http://purl.org/dc/dcmitype/StillImage" />
        <dc:title></dc:title>
      </cc:Work>
    </rdf:RDF>
  </metadata>
  <defs
     id="defs911" />
  <sodipodi:namedview
     pagecolor="#ffffff"
     bordercolor="#666666"
     borderopacity="1"
     objecttolerance="10"
     gridtolerance="10"
     guidetolerance="10"
     inkscape:pageopacity="0"
     inkscape:pageshadow="2"
     inkscape:window-width="1920"
     inkscape:window-height="1001"
     id="namedview909"
     showgrid="false"
     inkscape:zoom="0.71777344"
     inkscape:cx="402.97112"
     inkscape:cy="226.41005"
     inkscape:window-x="-9"
     inkscape:window-y="-9"
     inkscape:window-maximized="1"
     inkscape:current-layer="g915" />
  <g
     inkscape:groupmode="layer"
     inkscape:label="Image"
     id="g915">
    <ellipse
       style="fill:#28c0c5;fill-opacity:1;stroke:#28c0c5;stroke-width:1.89098;stroke-linecap:round;stroke-linejoin:round;stroke-opacity:1;paint-order:markers fill stroke"
       id="path919"
       cx="257.98199"
       cy="256.20624"
       rx="249.0545"
       ry="249.05452" />
    <ellipse
       style="fill:#28c0c5;fill-opacity:1;stroke:#fff7ff;stroke-width:3;stroke-linecap:round;stroke-linejoin:round;stroke-miterlimit:4;stroke-dasharray:none;stroke-opacity:1;paint-order:markers fill stroke"
       id="path1482"
       cx="257.98199"
       cy="256.20624"
       rx="239.1292"
       ry="239.12918" />
    <path
       style="fill:#ffffff;fill-opacity:1;stroke:none;stroke-width:2.62445;stroke-miterlimit:4;stroke-dasharray:none"
       d="m 139.42559,430.79815 c -3.70787,-0.51666 -10.13061,-3.20186 -14.27277,-5.96713 -12.65009,-8.44511 -15.58192,-16.97736 -15.58192,-45.34692 0,-18.89898 -1.02688,-26.68586 -3.8708,-29.35218 -5.5202,-5.17542 -14.762055,-29.49075 -19.675685,-51.76665 -5.07179,-22.99293 -3.62712,-64.90457 3.02772,-87.83793 17.616545,-60.70871 68.127355,-110.08708 128.952135,-126.061068 18.46024,-4.848107 63.29007,-4.171359 82.68045,1.24812 62.55461,17.483578 110.09962,65.923048 127.49746,129.896028 3.28107,12.06466 4.82581,27.19789 4.79949,47.0184 -0.0428,32.24621 -4.35954,51.49592 -17.46437,77.88017 -6.75185,13.5937 -7.75461,18.61614 -7.75461,38.84006 0,14.05493 -1.48464,26.55879 -3.75955,31.66338 -5.42709,12.17763 -18.12171,19.7813 -33.02579,19.7813 -14.22864,0 -23.64784,-4.9803 -31.1048,-16.44628 -4.77661,-7.34462 -5.28309,-13.05937 -5.29226,-59.71421 -0.0117,-56.4965 1.12127,-61.56907 15.95474,-71.47177 14.7548,-9.85019 38.99687,-5.56083 50.27128,8.89492 2.09124,2.68134 4.81691,3.92387 6.05703,2.7612 4.51086,-4.22915 2.36584,-63.04072 -2.8889,-79.20717 -17.56035,-54.02505 -60.26586,-94.324 -113.52399,-107.12665 -21.80024,-5.24054 -56.88094,-3.51263 -79.22327,3.90216 -22.23335,7.37863 -50.72578,26.14851 -65.66445,43.25758 -14.27076,16.34414 -28.48137,42.98997 -34.69211,65.04998 -4.77029,16.94362 -6.00376,62.39371 -1.96235,72.30628 l 2.53855,6.22638 4.88626,-6.99167 c 14.45507,-20.68341 49.8578,-18.45646 62.91021,3.95728 4.22155,7.24929 4.87556,15.02048 4.87556,57.93231 0,42.24436 -0.69421,50.74963 -4.70304,57.61954 -8.1388,13.94745 -23.63878,21.33287 -39.99022,19.05454 z"
       id="path1484" />
  </g>
</svg>
